<?xml version="1.0" encoding="utf-8"?>
<!-- Generator: Adobe Illustrator 23.0.0, SVG Export Plug-In . SVG Version: 6.00 Build 0)  -->
<svg version="1.1" id="Capa_1" xmlns="http://www.w3.org/2000/svg" xmlns:xlink="http://www.w3.org/1999/xlink" x="0px" y="0px"
	 viewBox="0 0 264.32 429.93" style="enable-background:new 0 0 264.32 429.93;" xml:space="preserve">
<style type="text/css">
	.st0{opacity:0.03;clip-path:url(#SVGID_2_);}
	.st1{opacity:0.3;fill:#211915;}
	.st2{fill:#FFFFFF;}
	.st3{fill:#B0CD4A;}
</style>
<g>
	<defs>
		<rect id="SVGID_1_" x="-1558.41" y="528.72" width="1366" height="1366"/>
	</defs>
	<clipPath id="SVGID_2_">
		<use xlink:href="#SVGID_1_"  style="overflow:visible;"/>
	</clipPath>
</g>
<g>
	<path class="st2" d="M39.99,236.34l2.29-0.74l2.29,0.12l2.29-0.13l2.29,0.15l2.29,0.28l2.29-0.17l2.28,0.29l2.28-0.6l2.29,0.44
		l2.29-0.21l2.29,0.56l1.43-0.47l1.51,0.26l1.03,0.07l0.6,0.22l2.28-0.23l2.29,0.21l2.28-0.3l2.29,0.22l2.28,0.17l1.64-0.31
		l1.14,0.14l2.26,0.08l1.92-0.63l2.18,0.7l1.52-0.25l0.76,0.21l0.32-0.08l0.09,0.02l2.26,0.09l2.26-0.06l1.17-0.25l0.76,0.27
		l2.17-0.05l0.42,0.1l2.26-0.08l2.26-0.27l2.26-0.04l2.26,0.07l1.7-0.1l0.36,0.07l2.28,0.14l0.67-0.02l1.62,0.21l2.28,0l1.07-0.39
		l1.32,0.2l2.26-0.02l2.26-0.4l2.26,0.46l0.56-0.1l1.7-0.24l0.27-0.04l1.99,0.23l1.92-0.3l0.32-0.04l0.07,0.01l0.01,0l0.3,0.08
		l1.95,0.57l1.66-0.35l0.65,0.14l1.06-0.16l1.2,0.12l1.61,0.01l0.55,0.2l1.61-0.29l0.82,0.18l2.28,0.1l1.75-0.65l0.5,0.05l1.49-0.05
		l0.83,0.11l2.28,0.48l0.68-0.23l0.22-0.02l1.09,0.27l0.89-0.31l1.64,0.16l0.87-0.19l1.12,0.43l2.26-0.12l2.26-0.08l1.15-0.36
		l1.47-0.04l0.5,0l1.84,0.51l2.28-0.13l2.28-0.08l0.92-0.17l0.86,0.25l2.26-0.55l2.26,0.44l2.26-0.27l2.26,0.51l2.26-0.33l2.26,0.09
		l2.26-0.38l2.26,0.59l0.86-0.14l2.12-0.2l2.28,0.21l2.28-0.4l2.28,0.01l2.28,0.13l2.28,0.46l2.28-0.09l2.28-0.61l2.28,0.08
		l2.28,0.37l2.28-0.42l2.28,0.25l2.28-0.32l2.3,0.34l-0.51-2.27l-1.41-1.89l-0.49-2.27l-1.5-1.85l-0.57-2.23l-0.34-2.32l-1.5-1.85
		l-0.26-2.36l-0.85-2.11l-1.47-1.86l-0.88-2.1l-0.44-2.28l-1.44-1.87l-0.88-2.1l-0.66-2.19l-0.38-2.31l-1.39-1.89l-0.5-2.26
		l-1.33-1.92l-0.87-2.1l-0.9-2.09l-0.47-2.27l-1-2.05l-0.83-2.12l-0.99-2.06l-0.46-2.27l-1.17-1.98l-1.08-2.02l-0.46-2.27
		l-0.94-2.08l-0.89-2.1l-1.26-1.94l-0.91-2.09l-0.46-2.27l-1.29-1.93l-0.55-2.24l-0.33-2.32l-1.01-2.04l-1.42-1.88l-0.49-2.26
		l-1.2-1.97l-0.91-2.09l-0.22-2.37l-1.46-1.86l-0.34-2.32l-1.12-2l-0.58-2.22l-1.28-1.94l-0.48-2.27l-1.2-1.97l-0.45-2.28
		l-0.98-2.06l-1.24-1.95l-0.9-2.09l-1.1-2.01l-0.63-2.2l-0.57-2.23l-1.33-1.92l-0.17-2.39l-1.55-1.82l-0.39-2.3l-1.44-1.87
		l-0.21-2.38l-0.73-2.16l-1.01-2.05l-1.29-1.93l-0.48-2.27l-1.38-1.89l-0.9-2.09l-0.94-2.08l-0.12-2.41l-1.02-2.04l-1.08-2.02
		l-0.93-2.08l-0.62-2.21l-1.23-1.96l-0.32-2.33l-1.39-1.89l-0.46-2.27l-1.21-1.97l-0.41-2.29l-1.11-2.01l-0.77-2.14l-1.04-2.03
		l-0.68-2.18l-0.73-2.16l-1.65-1.78l-0.34-2.32l-1.03-2.04l-0.91-2.09l-0.84-2.12l-0.62-2.2l-0.65-2.2l-1.26-1.94l-0.91-2.08
		l-0.74-2.15l-1-2.05l-0.6-2.22l-1.47-1.86l-0.64-2.2l-0.35-2.32l-0.91-2.09l-0.92-2.08l-0.94-2.07l-0.76-2.15l-1.4-1.88l-0.21-2.37
		l-1.51-1.84l-0.52-2.25l-0.8-2.13l-1.38-1.89L132.5,0l-0.65,2.33l-1.13,2l-0.45,2.28l-0.8,2.13l-1.43,1.88l-0.82,2.13l-1.09,2.02
		l-0.32,2.33l-1.33,1.92l-0.73,2.16l-0.46,2.27l-1.07,2.02l-0.96,2.07l-1.16,1.99l-0.32,2.33l-1.31,1.92l-0.47,2.27l-1.06,2.03
		l-1.15,1.99l-0.31,2.34l-1.56,1.82l-0.55,2.24l-0.85,2.11l-1.19,1.97l-0.47,2.27l-0.99,2.06l-1.19,1.97l-0.85,2.11l-0.86,2.11
		l-0.28,2.35l-0.93,2.08l-1.31,1.92l-0.72,2.16l-0.47,2.27L102.4,74l-0.89,2.1l-1.51,1.84l-0.75,2.15l-0.5,2.26l-1.37,1.9
		l-0.77,2.15l-0.68,2.18l-0.53,2.24l-0.87,2.11l-0.65,2.2l-0.98,2.06l-0.86,2.11l-0.76,2.15l-1.39,1.89l-1.09,2.01l-0.71,2.17
		l-0.69,2.18l-0.87,2.1l-1.15,1.99l-0.4,2.3l-1.27,1.94l-0.85,2.11l-0.5,2.26l-1.32,1.92l-0.83,2.12l-0.55,2.23l-1.23,1.96
		l-0.36,2.32l-1.36,1.9l-0.36,2.32l-1.12,2l-0.76,2.15l-1.29,1.93l-0.41,2.3l-0.92,2.09l-0.54,2.24l-1.55,1.82L69.4,154l-0.87,2.1
		l-1.48,1.85l-0.12,2.41l-0.86,2.11l-0.85,2.11l-1.62,1.79l-0.45,2.28l-0.69,2.18l-0.92,2.08l-1.09,2.01l-1.11,2l-0.7,2.17
		l-0.84,2.12l-0.87,2.11l-0.95,2.07l-0.43,2.29l-0.66,2.19l-1.46,1.86l-0.92,2.08l-0.59,2.22l-1.05,2.03l-0.52,2.25l-1.09,2.01
		l-0.62,2.21l-0.85,2.11l-1.52,1.84l-0.27,2.35l-0.87,2.11l-1.13,2l-0.92,2.08l-1.07,2.02l-0.63,2.2l-1.16,1.98l-0.28,2.34
		l-0.72,2.16l-1.49,1.85l-0.51,2.25l-1.02,2.04l-1.1,2.33l2.58,0.23L39.99,236.34z M183.4,224.16l-0.95-0.34l-0.56,0.01l-0.32-0.07
		l-2.29,0.08l-2.29,0.27l-2.28,0.04l-2.28-0.07l-1.29,0.07l-0.05-0.01l-0.14,0.02l-0.8,0.04l-0.15,0.03l-0.32-0.87l-0.98-2.05
		l-1.3-1.91l-0.13-2.39l-1.24-1.94l-0.54-2.23l-0.88-2.09l-1.23-1.94l-0.44-2.27l-1.25-1.94l-0.62-2.19l-1.19-1.96l-0.28-2.33
		l-1.68-1.76l-0.8-2.12l-0.1-2.41l-1.24-1.94l-0.62-2.19l-1.46-1.85l-0.76-2.13l-0.79-2.12l-0.34-2.31l-1.58-1.8l-0.06-2.42
		l-0.97-2.05l-0.94-2.06l-1.52-1.82l-0.77-2.13l-0.75-2.14l-1.03-2.02l-0.25-2.34l-1.37-1.88l-0.46-2.26l-1.11-1.99l-0.39-2.29
		l-1.16-1.97l-0.78-2.13l-1.21-1.95l-0.32-2.32l-1.21-1.95l-0.91-2.07l-0.58-2.21l-0.63-2.19l-1.29-1.68l-1.18,1.73l-0.2,2.37
		l-1.39,1.88l-0.53,2.23l-1.01,2.04l-1.14,1.98l-0.22,2.36l-1.29,1.92l-0.43,2.27l-0.98,2.05l-1.23,1.94l-0.44,2.27l-1.1,2
		l-1.08,2.01l-0.83,2.11l-1.01,2.03l-0.99,2.04l-0.1,2.41l-1.65,1.77l-0.51,2.24l-1.16,1.97l-0.19,2.37l-1.32,1.9l-0.95,2.06
		l-0.27,2.34l-1.17,1.97l-1.31,1.91l-0.33,2.31l-1.28,1.92l-0.81,2.12l-0.56,2.22l-0.98,2.04l-0.53,2.23l-1.24,1.94l-1.08,2
		l-0.9,2.07l-0.34,2.3l-1.02,2.03l-0.68,2.17l-0.83,2.11l-1.06,2.01l-1.16,1.97l-1.01,2.03l-0.06,0.61l-0.12-0.03l-0.85,0.12
		l-0.1-0.03l-0.42,0.1l-0.9,0.13l-2.28-0.09l-2.28,0.38l-2.28-0.59l-0.86,0.14l-0.05-0.01l-2.27,0.21l-1.4-0.13l0.75-2.05l0.59-2.23
		l1.48-1.87l0.67-2.2l1.06-2.04l0.5-2.27l0.88-2.11l0.99-2.07l1.3-1.94l0.79-2.15l0.3-2.35l0.95-2.08l1.22-1.97l0.48-2.28l1.1-2.02
		l0.57-2.24l1.19-1.98l1.29-1.94l0.16-2.41l1.4-1.9l0.64-2.21l0.85-2.12l0.87-2.12l1.12-2.01l0.63-2.21l0.97-2.07l0.54-2.25
		l1.44-1.88l0.34-2.33l1.35-1.92l0.87-2.11l0.53-2.25l1.2-1.98l0.26-2.37l0.77-2.16l1.05-2.04l1.18-1.99l0.56-2.24l1.43-1.88
		l0.76-2.16l0.9-2.1l0.63-2.21l0.6-2.23l1.24-1.96l0.57-2.24l0.87-2.11l1.51-1.85l0.61-2.22l0.65-2.2l1.04-2.04l1.14-2l0.62-2.22
		l0.99-2.07l0.73-2.17l0.78-2.15l1.21-1.97l0.82-2.13l0.91-2.1l0.51-2.66l1,2.47l1.18,1.99l0.34,2.33l1.38,1.9l0.2,2.39l0.99,2.07
		l0.8,2.14l0.88,2.11l0.79,2.15l1.01,2.05l0.83,2.13l1.22,1.97l0.49,2.27l1.25,1.96l0.89,2.11l0.52,2.26l1.23,1.97l0.61,2.22
		l0.86,2.12l1.18,1.99l0.36,2.33l1.39,1.9l0.68,2.19l0.88,2.11l0.38,2.32l1.39,1.9l0.45,2.29l0.88,2.11l1.49,1.86l0.82,2.14
		l0.42,2.3l0.87,2.11l1.04,2.04l1.34,1.92l0.56,2.24l0.73,2.17l0.58,2.23l0.94,2.09l1.11,2.01l0.55,2.25l0.76,2.16l1.31,1.93
		l1.25,1.96l0.73,2.17l0.5,2.27l0.72,2.18l1.51,1.85l0.56,2.24l0.97,2.08l0.48,2.27l1.07,2.03l0.6,2.22l0.8,2.15l1.55,1.83
		l0.81,2.14l0.28,2.36l0.79,2.15l0.93,2.09l1.31,2.02L183.4,224.16z M156.29,224.35l-2.13-0.43l-0.82,0.15l-0.43-0.13l-0.23,0.03
		l-0.03-0.01l-0.41,0.07l-1.33,0.19l-1.31-0.15l-0.77,0.12l-0.66-0.07l-1.32,0.18l-1.82-0.5l-0.52,0.2l-0.82-0.25l-1.55,0.33
		l-0.57-0.13l-1.11,0.17l-1.25-0.13l-0.46,0l-0.57-0.2l-1.08,0.2l-0.13,0l-0.68,0.15l-0.28,0.05l-1.26-0.28l-2.27-0.1l-1.74,0.65
		l-0.49-0.05l-1.49,0.05l-0.83-0.11l-2.27-0.48l-0.45,0.16l-0.72-0.18l-1.05,0.36L121.3,224l-0.46,0.1l-0.9-0.34l-2.28,0.12
		l-2.28,0.08l-1.12,0.35l-1.91,0.05l-0.75,0l-1.82-0.5l-1.99,0.12l0.59-2.05l0.99-2.08l1.24-1.99l0.46-2.31l1.12-2.04l1.1-2.05
		l0.85-2.15l1.03-2.08l1.01-2.09l0.12-2.45l1.67-1.81l0.53-2.28l1.18-2.01l0.21-2.42l1.34-1.95l0.96-2.1l0.29-2.38l1.19-2.01
		l1.33-1.95l0.34-2.36l1.29-1.97l0.83-2.16l0.58-2.26l1-2.09l0.55-2.27l1.26-1.98l1.1-2.05l0.57-1.88l1.05,1.69l0.72,2.21l1.06,2.07
		l0.91,2.12l0.68,2.22l0.58,2.26l0.73,2.2l1.5,1.88l0.31,2.37l0.93,2.11l1,2.09l0.72,2.2l1.47,1.9l0.26,2.39l1.43,1.91l1.06,2.06
		l0.84,2.15l0.96,2.11l0.44,2.32l0.85,2.15l0.9,2.13l1.24,1.99l0.47,2.31l0.75,2.19l0.95,2.11l1.25,1.98l1.07,2.06l0.4,2.25
		L156.29,224.35z M53.76,222.07l1.17-1.98l0.41-2.29l1.56-1.81l0.18-2.38l1.34-1.9l0.29-2.34l1.52-1.83l1-2.04l0.72-2.16l0.44-2.27
		l1.25-1.94l0.35-2.31l0.83-2.11l0.79-2.13l1.61-1.79l0.71-2.16l0.65-2.19l0.8-2.13l1.11-2l0.5-2.25l1.41-1.87l0.34-2.32l1.27-1.93
		l0.53-2.24l1.32-1.91l0.62-2.2l0.96-2.06l0.69-2.17l1.05-2.02l1-2.04l0.08-2.42l1.39-1.88l0.7-2.17l0.82-2.12l0.89-2.09l1.11-2
		l1.08-2.01l0.47-2.26l0.82-2.12l0.99-2.05l0.73-2.15l1.13-1.99l0.26-2.35l1.09-2.01l1.38-1.89l0.82-2.12l0.81-2.12l0.79-2.13
		l0.97-2.05l0.33-2.32l1.52-1.83l0.22-2.36l1.21-1.96l0.93-2.07l0.35-2.31l1.3-1.92l0.53-2.24l1.13-1.99l0.44-2.27l0.8-2.12
		l1.43-1.87l0.82-2.12l1.08-2.01l0.32-2.32l1.33-1.91l0.73-2.15l0.46-2.27l1.07-2.02l0.95-2.06l1.16-1.98l0.32-2.32l1.31-1.92
		l0.47-2.26l1.05-2.02l1.15-1.98l0.3-2.33l1.56-1.81l0.55-2.23l0.85-2.1l1.19-1.97l0.47-2.26l0.98-2.05l1.19-1.96l0.84-2.11
		l0.86-2.1l0.27-2.34l0.92-2.07l1.31-1.92l0.72-2.16l0.47-2.26l1.1-2.28l1.1,2.29l0.22,2.37l0.98,2.05l1.24,1.95l0.36,2.31
		l0.96,2.06l1.05,2.03l1.2,1.96l0.86,2.1l1.08,2.01l0.75,2.15l0.87,2.1l0.97,2.06l0.34,2.32l0.64,2.19l1.02,2.04l1.04,2.03l0.86,2.1
		l0.58,2.22l1.33,1.91l0.46,2.27l0.88,2.09l1.23,1.95l0.41,2.29l0.9,2.08l1.18,1.97l0.5,2.25l1.37,1.89l0.37,2.3l1.38,1.89l0.61,2.2
		l0.97,2.05l0.44,2.27l1.32,1.91l0.81,2.12l1.19,1.96l0.18,2.38l1.38,1.89l0.86,2.1l0.25,2.35l1.61,1.79l0.88,2.09l0.88,2.09
		l0.11,2.41l1.28,1.93l1.04,2.03l0.81,2.12l0.64,2.19l0.62,2.2l1.03,2.03l0.89,2.09l0.86,2.1l0.78,2.13l1.31,1.92l1.07,2.02
		l0.27,2.34l0.81,2.12l1.14,1.99l0.68,2.18l1.21,1.96l0.64,2.19l1.11,2l0.88,2.09l0.21,2.37l1.46,1.85l0.87,2.1l0.6,2.21l0.81,2.12
		l0.66,2.18l1.1,2l0.57,2.22l1.45,1.86l1.01,2.04l0.24,2.35l1.22,1.95l0.71,2.16l0.6,2.21l0.8,2.13l0.95,2.06l1.54,1.82l0.75,2.15
		l0.98,2.05l0.72,2.16l0.61,2.2l1.02,2.03l0.6,2.21l1.42,1.87l0.46,2.26l1.06,2.02l0.34,2.31l1.56,1.81l0.13,2.03l-1.94,0.05
		l-2.28-0.21l-2.27,0.3l-2.27-0.22l-2.27-0.17l-2.27,0.43l-1.48,0l-0.44-0.82l-0.67-2.18l-1.14-1.98l-0.66-2.18l-0.71-2.16
		l-1.26-1.93l-0.86-2.09l-1.15-1.98l-0.19-2.37l-1.21-1.95l-0.63-2.19l-1.56-1.81l-0.1-2.41l-0.91-2.08l-1.51-1.83l-0.63-2.19
		l-1.1-2l-0.46-2.26l-1.17-1.97l-0.49-2.25l-0.59-2.21l-0.86-2.1l-1.64-1.77l-0.69-2.17l-1.05-2.02l-0.22-2.36l-1.16-1.97l-1.2-1.95
		l-0.66-2.17l-0.9-2.08l-0.4-2.28l-1.19-1.96l-0.96-2.05l-0.39-2.29l-0.77-2.13l-1.65-1.77l-0.58-2.21l-0.42-2.28l-1.59-1.8
		l-0.54-2.23l-0.99-2.04l-0.92-2.07l-0.95-2.06l-0.76-2.14l-0.28-2.33l-0.99-2.04l-0.94-2.06l-1.26-1.93l-0.93-2.07l-0.74-2.14
		l-1.02-2.03l-0.25-2.34l-1.38-1.88l-0.73-2.15l-1.15-1.98l-0.25-2.34l-1.06-2.01l-0.67-2.17l-1.23-1.94l-0.85-2.1l-0.74-2.14
		l-0.44-2.27l-0.94-2.06l-1.43-1.86l-0.79-2.13l-0.52-2.24l-1.25-1.93l-0.63-2.19l-1.16-1.97l-0.54-2.22l-0.44-2.27l-1.57-1.8
		l-0.33-2.31l-1.1-2l-0.88-2.09l-0.87,2.1l-1.11,2l-0.62,2.2l-0.96,2.05l-0.53,2.23l-1.43,1.86l-0.33,2.32l-1.35,1.9l-0.86,2.1
		l-0.52,2.23l-1.19,1.96l-0.25,2.35l-0.76,2.14l-1.04,2.02l-1.17,1.97l-0.56,2.22l-1.42,1.87l-0.76,2.14l-0.89,2.08l-0.62,2.19
		l-0.59,2.21l-1.23,1.94l-0.56,2.22l-0.86,2.09l-1.5,1.83l-0.6,2.2l-0.64,2.18l-1.03,2.02l-1.13,1.98l-0.62,2.2l-0.98,2.04
		l-0.73,2.15l-0.77,2.13l-1.2,1.95l-0.81,2.11l-0.9,2.08l-0.13,2.39l-1.1,1.99l-0.56,2.22l-1.39,1.88l-0.35,2.3l-1.54,1.82
		l-0.74,2.14l-0.93,2.07l-0.86,2.1l-0.95,2.06l-0.72,2.15l-0.91,2.08l-0.52,2.24l-1.24,1.94l-0.48,2.25l-0.84,2.1l-1.21,1.95
		l-0.5,2.24l-1.13,1.98l-0.87,2.09l-0.56,2.22l-1.37,1.88l-0.35,2.31l-1.05,2.02l-0.86,2.1l-1.35,1.89l-0.34,2.31L77,202.38
		l-0.85,2.1l-0.24,2.35l-0.91,2.07l-1.31,1.91l-0.86,2.09l-0.69,2.17l-0.39,2.29l-1.18,1.96l-1,2.03l-1.15,1.97l-0.3,0.8l-1.48,0.4
		l-2.27-0.08l-2.27-0.37l-2.27,0.42l-2.27-0.25l-2.27,0.32l-2.26-0.34L53.76,222.07z"/>
	<polygon class="st2" points="121.17,263.83 123.44,263.56 125.7,263.85 127.97,263.8 130.23,263.75 132.5,263.35 134.76,263.46 
		137.02,263.8 139.29,263.54 141.55,263.2 143.82,263.42 146.08,263.78 148.34,263.43 150.61,263.2 152.87,263.11 155.14,263.18 
		157.4,263.27 159.66,263.19 161.93,263.24 164.19,263.86 166.46,263.19 168.72,263.97 170.98,263.77 173.25,263.6 175.51,263.84 
		177.77,263.36 180.04,263.7 182.3,263.99 184.56,263.31 186.83,263.87 189.09,263.94 191.35,263.28 193.62,263.59 195.88,263.15 
		198.15,263.43 200.41,263.3 202.67,263.67 204.93,263.79 207.2,263.94 209.46,263.99 211.72,263.53 213.99,263.19 216.25,263.38 
		218.51,264.01 220.78,263.75 223.04,263.96 225.3,263.38 227.56,263.89 230.18,263.88 230.26,261 229.68,258.49 230.13,255.95 
		230.01,253.25 227.56,253.49 225.29,253.36 223.02,253.72 220.76,253.31 218.49,253.08 216.22,253.03 213.96,253.59 211.69,253.42 
		209.43,253.61 207.16,253.65 204.9,253.44 202.63,253.12 200.37,252.96 198.1,253.63 195.84,253.02 193.57,253.07 191.31,253.2 
		189.04,253.03 186.78,253.67 184.51,253 182.25,253.6 179.98,253.79 177.72,253.75 175.45,253.83 173.19,253.36 170.93,253.33 
		168.66,253.35 166.4,253.74 164.13,253.3 161.87,253.16 159.61,253.23 157.34,253.64 155.08,253.84 152.82,253.32 150.55,253.86 
		148.29,253.16 146.02,253.55 143.76,253.31 141.5,253.61 139.23,252.94 136.97,253.42 134.7,253.19 132.44,253.18 130.17,253.67 
		127.91,253.84 125.65,253.61 123.38,253.69 121.12,253.25 118.85,253.41 116.59,253.19 114.33,253.69 112.06,253.73 109.8,253.49 
		107.53,253.55 105.27,253.54 103.01,253.64 100.74,253.05 98.48,253.07 96.21,253.19 93.95,253.31 91.69,253.85 89.42,253.16 
		87.16,253.86 84.9,253.85 82.63,253.76 80.37,253.36 78.11,253.45 75.84,253.53 73.58,253.21 71.32,253.23 69.05,253.71 
		66.79,253.41 64.53,253.3 62.26,253.64 60,253.86 57.74,253.42 55.47,253.55 53.21,253.5 50.95,253.4 48.68,253.48 46.42,253.6 
		44.16,253.55 41.89,253.05 39.63,253.14 37.37,253.29 35.3,253.59 35.55,255.95 34.68,258.49 35.45,261.03 35.31,263.39 
		37.38,263.29 39.64,263.69 41.91,263.18 44.18,263.72 46.44,263.35 48.71,263.96 50.98,263.18 53.24,263.45 55.51,263.48 
		57.77,263.79 60.04,263.17 62.3,263.74 64.57,263.23 66.83,263.33 69.1,263.8 71.36,263.91 73.63,263.44 75.89,263.25 
		78.16,263.18 80.42,263.15 82.69,263.53 84.95,263.54 87.22,263.68 89.48,263.68 91.74,263.23 94.01,263.48 96.27,263.96 
		98.54,263.91 100.8,263.1 103.06,263.44 105.33,263.1 107.59,263.17 109.85,263.54 112.12,263.61 114.38,263.37 116.64,263.17 
		118.91,263.33 	"/>
	<polygon class="st2" points="146.02,406.08 147.06,406.16 148.82,404.67 150,403.47 151.1,402.31 150.3,401.03 148.78,400.63 
		147,399.95 145.13,400.24 143.17,399.98 144.25,398.25 145.37,396.69 146.32,395.02 147.87,393.77 148.64,391.97 149.98,390.57 
		150.89,388.86 151.85,387.19 153.26,385.85 154.4,384.32 155.59,382.81 156.91,381.61 158.73,381.42 160.66,381.1 162.38,380.01 
		164.25,379.56 166.18,379.09 167.69,377.83 169.22,376.63 169.67,374.89 169.32,373.48 167.8,372.66 166.15,372.02 164.32,371.88 
		162.62,372.56 160.75,372.68 159.16,373.61 157.66,374.63 156.32,375.85 154.96,377.13 153.07,377.23 151.29,377.67 149.45,377.61 
		147.6,377.39 145.82,377.81 144.03,378.38 142.19,378.24 140.37,378.07 138.55,378.06 136.74,378.53 134.91,378.63 132.92,378.55 
		130.94,378.38 128.96,378.28 126.99,377.96 125.05,377.55 123.13,376.59 124.39,375.38 125.89,375.08 126.54,374.47 123.92,373.95 
		121.72,373.69 119.68,374.55 117.96,376.01 117.74,378.2 117.68,380.1 119.18,381.28 120.56,382.39 122.06,383.62 123.98,383.64 
		125.75,384.36 127.65,384.07 129.48,384.37 131.34,383.95 133.24,384.06 135.16,384.33 137.07,384.45 138.95,383.78 140.86,383.81 
		142.77,383.79 144.67,383.67 146.55,383.31 148.46,383.07 147.09,384.41 146.18,386.09 145.18,387.69 143.52,388.81 142.57,390.45 
		141.85,392.25 140.72,393.76 139.47,395.18 138.31,396.67 137.43,398.35 136.31,399.88 134.4,399.63 132.53,400.28 130.65,400.39 
		128.76,400.35 126.86,400.19 124.99,400.41 123.12,400.69 121.3,401.05 119.91,401.93 118.8,403.23 117.7,404.47 116.88,405.87 
		116.73,406.56 117.81,408.16 119.51,407.04 121.58,407.57 123.55,407 125.57,407.22 127.56,406.88 129.56,406.75 131.33,406.79 
		130.78,408.42 129.49,409.86 128.27,411.35 127.53,413.16 125.96,414.42 125.11,416.16 124.14,417.81 122.64,419.12 121.87,420.91 
		121.17,422.73 119.6,424.02 118.85,425.84 118.34,427.24 119.76,428.88 121.77,428.73 123.21,428.81 124.62,428.54 126.09,427.58 
		126.88,425.84 127.8,424.15 128.92,422.58 130.1,421.05 130.97,419.33 132.05,417.74 132.7,415.86 134.31,414.61 134.91,412.71 
		136.3,411.32 137.1,409.55 138.47,408.15 139.26,406.48 141.62,406.47 143.81,406.22 	"/>
	<polygon class="st2" points="173.84,410.04 175.49,408.71 176.22,406.76 177.17,404.97 178.38,403.31 178.55,401.3 178.54,399.45 
		176.86,398.67 175.27,398.2 173.39,397.9 171.64,398.6 170.07,399.61 168.32,400.28 167.12,401.78 165.66,402.88 164.16,403.96 
		162.82,405.24 161.59,406.62 160.23,407.69 161.63,406.45 162.25,404.47 163.35,402.83 164.56,401.23 165.03,399.33 164.21,397.54 
		162.08,397.78 160.27,398.93 158.29,399.8 157.23,401.62 156.05,403.35 155.01,405.14 154.46,407.05 153.59,408.77 152.07,410.09 
		151.31,411.88 150.4,413.57 149.55,415.3 148.72,417.04 147.22,418.39 146.41,420.15 145.25,421.7 144.85,423.46 143.91,424.87 
		143.15,426.42 143.58,426.94 145.2,427.75 146.95,428.32 148.39,427.95 149.36,426.83 150.09,425.15 151.14,423.71 152.37,422.42 
		153.86,421.34 154.8,419.82 156.12,418.62 157.22,417.22 158.42,415.76 159.54,414.19 160.97,412.93 162.63,411.9 163.72,410.31 
		165.3,409.21 166.26,407.45 168.12,406.69 169.13,404.92 170.65,404.66 169.72,406.09 168.73,408.04 168.68,410.17 168.93,412.16 
		170.76,412.79 173.14,412.04 	"/>
	<polygon class="st2" points="222.04,386.67 220.28,386.68 218.45,387.51 217.38,389.19 216.78,391.03 216.45,392.9 216.83,394.76 
		217.78,396.27 219.44,395.74 221.32,395.23 221.93,393.35 223.35,391.89 223.47,389.92 222.9,388.11 	"/>
	<polygon class="st2" points="250.27,388.23 248.36,387.38 246.49,387.54 244.48,388.04 245.7,386.43 246.77,384.92 247.48,383.19 
		248.58,381.62 247.57,380.77 246.05,380.4 244.29,380.36 243.19,381.38 241.77,382.43 241.13,384.1 239.97,385.37 239.05,386.82 
		237.98,388.47 236.21,388.09 234.52,388.04 232.91,387.99 231.34,388.73 229.72,388.41 228.01,389.21 226.37,390.09 225.24,391.45 
		223.77,393.22 224.97,394.8 226.96,395.2 227.3,395.18 229.44,394.79 231.57,394.31 233.9,394.46 233.07,396.12 231.96,397.59 
		230.82,399.06 229.57,400.46 229.09,402.32 227.96,403.79 227.19,405.48 226,406.93 225.18,408.58 224.15,410.13 223.79,412.01 
		222.86,413.6 222.36,415.4 221.18,416.9 221.11,417.05 220.56,417.5 219.52,419.13 218.26,420.56 216.73,421.71 215.12,422.71 
		213.56,423.83 211.65,423.79 209.83,422.77 210.26,421.21 210.48,419.47 211.63,418.2 212.59,416.84 213.54,415.26 214.64,413.77 
		215.39,412.08 216.48,410.58 216.82,408.66 217.68,407.03 219.12,405.73 220.13,404.18 220.6,402.35 221.43,400.71 220.4,398.86 
		218.65,397.5 216.91,398.47 215.3,399.47 213.69,400.51 211.98,401.52 210.66,402.97 209.73,404.66 210.7,405.64 211.12,407.12 
		210.05,408.54 209.08,410.1 208.74,412.04 207.27,413.3 206.48,414.96 205.51,416.52 205.13,417.12 204.15,418.2 202.73,419.44 
		201.86,421.25 200.22,422.27 198.7,423.4 196.89,423.95 195.87,422.4 196.15,420.66 196.33,418.82 197.2,417.2 197.74,415.46 
		198.65,413.88 199.48,412.26 200.43,410.71 200.91,408.7 202.23,407.14 203.19,405.38 203.78,403.4 204.89,401.72 206.11,400.09 
		205.86,399.89 205.18,398.05 204.53,398.1 202.3,398.26 200.28,399.22 198.95,401 197.93,402.92 196.59,404.65 195.34,406.08 
		194.55,407.9 193.13,409.23 192.09,410.87 190.97,412.45 189.49,413.72 188.36,415.3 187,416.67 185.61,418.01 184.11,419.24 
		182.72,420.56 181.1,421.62 179.48,422.91 179.29,422.03 179.53,420.19 179.92,418.28 180.99,416.67 182.24,415.17 182.68,413.25 
		183.92,411.76 184.74,410.04 185.79,408.44 186.25,406.53 187.57,405.08 188.28,403.3 188.62,401.53 188.06,399.91 186.42,399.18 
		184.79,400.02 183.11,401.19 182.55,403.17 181.08,404.59 180.47,406.5 179.72,408.34 178.46,409.73 177.8,411.45 176.76,412.96 
		176.06,414.66 175.35,416.34 173.92,417.71 173.25,419.43 172.8,421.23 172.69,423.09 172.05,424.89 172.45,426.86 173.77,428.31 
		175.41,429.11 177.1,429.78 179.08,429.82 180.78,428.83 182.27,427.61 183.78,426.47 185.11,425.11 186.88,424.19 187.88,422.51 
		189.21,421.14 190.13,419.44 191.54,418.29 191.01,419.78 190.01,421.27 190.26,423.06 189.65,424.75 190.61,426.62 191.72,428.21 
		193.38,429.42 195.44,429.93 197.28,429.43 199.13,429.03 200.45,427.6 202.05,426.7 203.55,425.77 204.77,426.85 205.76,428.77 
		207.74,429.55 209.78,429.57 211.59,429.7 213.36,429.28 215.17,428.89 216.73,427.9 218.18,426.79 219.63,425.72 220.2,425.09 
		220.94,426.22 221.84,428.1 223.62,429.31 225.69,429.77 226.78,429.73 228.67,429.38 230.39,428.55 232.14,427.78 233.78,426.77 
		235.37,425.68 236.82,424.42 238.41,423.32 239.52,421.72 240.2,419.86 239.88,417.99 238.96,416.54 237.32,417.51 236.23,419.19 
		234.74,420.42 232.93,421.25 231.31,422.25 229.91,423.67 227.97,423.57 226.7,423.41 225.85,422.14 226.28,420.68 226.5,418.75 
		227.86,417.27 228.54,415.5 229.41,413.82 229.8,411.89 230.78,410.27 231.93,408.74 232.64,406.97 233.53,405.29 234.46,403.65 
		235.29,401.94 236.75,400.6 237.21,398.68 238.48,397.24 239.17,395.44 240.35,393.74 242.44,394.3 244.28,393.4 246.22,393.52 
		248.14,393.49 250.03,393.11 251.93,392.51 252.64,390.94 252.58,389.6 	"/>
	<polygon class="st2" points="18.18,309.2 18.31,311.13 20.3,312.74 22.2,313.13 24.09,312.74 25.99,312.94 28.01,311.13 
		27.8,309.28 27.44,307.43 27.55,305.58 27.38,303.73 27.99,301.89 27.72,300.04 27.73,298.19 27.66,296.34 27.66,294.39 
		27.21,292.48 26.26,290.76 25.33,289.06 23.96,287.7 22.78,286.06 20.99,285.2 19.13,284.59 17.31,283.73 15.31,284.03 
		12.65,283.91 10.65,283.72 8.73,284.27 7.1,285.44 5.21,286.1 3.89,287.58 2.45,288.93 1.26,290.54 1.18,292.61 0.12,294.36 
		0.14,296.34 0.45,297.8 0.29,299.26 0.15,301.05 0.58,302.81 0.63,304.61 0.92,306.4 1.46,308.13 2.67,309.68 2.85,311.61 
		4.14,313.13 4.72,314.92 4.92,316.85 5.78,318.53 6.8,320.15 7.16,322.02 7.77,323.79 8.62,325.47 9.39,327.18 9.67,329.08 
		10.14,330.9 11.22,332.5 11.88,334.25 12.71,335.94 13.24,337.75 13.8,339.54 14.55,341.26 15.32,342.97 15.96,344.73 
		16.53,346.52 17.28,348.24 17.64,350.02 18.32,351.7 18.69,353.47 18.62,355.29 18.26,357.09 18.55,359.04 18.12,360.71 
		17.52,362.47 15.78,363.13 14.09,363.25 13.87,363.74 12.02,363.5 10.75,362.16 9.49,360.86 9.13,359.04 9.1,357.1 9.31,355.17 
		9.18,353.23 9.65,351.29 9.72,349.36 9.03,347.42 9.32,345.49 9.79,343.55 7.66,341.44 5.76,341.85 3.87,341.78 1.97,341.78 
		0.43,343.55 0.05,345.4 0,347.25 0.36,349.1 0.35,350.95 0.24,352.8 0.01,354.65 0.03,356.49 0.11,358.34 0.69,360.24 0.81,362.19 
		1.3,364.12 2.64,365.61 3.67,367.32 5.37,368.36 6.93,369.57 8.7,370.51 10.76,370.27 12.65,370.84 15.31,370.8 17.29,370.82 
		19.27,370.51 21.11,369.72 22.71,368.53 23.85,366.88 25.41,365.68 26.33,363.96 26.84,362.09 27.72,360.31 27.44,358.34 
		27.87,356.88 27.64,355.42 27.38,353.66 27.47,351.87 27.03,350.14 26.55,348.43 26.15,346.69 25.27,345.01 24.94,343.13 
		23.98,341.49 23.61,339.63 22.7,337.96 22.14,336.17 21.6,334.37 20.71,332.7 20.33,330.84 19.8,329.04 18.7,327.45 18.51,325.52 
		17.37,323.95 16.75,322.18 16.34,320.33 15.38,318.69 14.99,316.83 14.64,314.96 13.59,313.36 12.72,311.68 12.15,309.89 
		11.35,308.19 10.79,306.4 10.45,304.63 10.19,302.86 9.5,301.18 9.83,299.35 9.63,297.6 9.48,295.64 9.83,293.97 10.45,292.22 
		12.13,291.43 13.87,291 14.09,291.16 15.71,291.74 17.4,292.34 18.09,293.98 18.5,295.64 18.31,297.58 18.32,299.52 18.49,301.45 
		18.46,303.39 18.9,305.32 18.58,307.26 	"/>
	<polygon class="st2" points="61.45,317.85 62.12,315.96 61.5,314.06 61.56,312.17 61.36,310.28 61.4,308.38 61.6,306.49 
		61.71,304.6 61.53,302.7 61.48,300.81 61.97,298.92 61.88,297.03 61.92,295.13 61.9,293.24 61.49,291.35 61.89,289.45 
		61.97,287.56 61.58,285.66 60.01,284.29 58.11,283.59 56.21,284 54.32,284.09 52.89,285.66 52.58,287.56 52.56,289.46 
		52.19,291.36 52.24,293.25 52.28,295.15 52.27,297.04 52.19,298.94 52.31,300.84 52.37,302.73 52.49,304.62 52.21,306.52 
		52.54,308.41 52.21,310.31 52.75,312.2 52.21,314.1 52.75,315.99 52.92,317.89 52.39,319.78 52.36,321.68 52.4,323.57 
		52.66,325.47 52.96,327.36 52.65,329.26 52.9,331.15 52.84,333.04 52.56,334.94 52.81,336.83 52.4,338.73 52.8,340.62 
		52.81,342.51 52.25,344.41 52.74,346.3 52.22,348.19 52.25,350.09 52.9,351.98 52.28,353.87 52.83,355.77 52.39,357.66 
		52.75,359.55 52.86,361.44 52.76,363.34 52.68,365.23 52.91,367.13 52.27,369.02 54.32,370.68 56.22,370.79 58.11,370.93 
		60.01,370.4 61.65,369.02 61.56,367.12 61.51,365.22 61.71,363.33 61.84,361.43 61.43,359.54 61.85,357.64 61.88,355.74 
		61.36,353.85 61.62,351.95 62.06,350.06 62.03,348.16 61.41,346.27 62.1,344.38 61.38,342.48 61.49,340.58 61.46,338.69 
		61.67,336.79 61.98,334.9 61.95,333.01 61.4,331.11 61.63,329.22 61.81,327.32 61.77,325.43 61.5,323.53 61.35,321.64 
		61.43,319.74 	"/>
	<polygon class="st2" points="99.37,290.79 101.26,291.41 103.16,291.41 104.64,289.43 105.24,287.55 104.73,285.66 103.16,284.07 
		101.3,283.85 99.44,284.14 97.59,284.17 95.73,284.29 93.88,283.63 92.02,283.89 90.16,284.05 88.31,284.2 86.87,285.66 
		86.95,287.56 86.47,289.46 86.41,291.36 86.77,293.25 86.52,295.15 86.77,297.04 86.23,298.94 86.35,300.84 86.34,302.73 
		86.39,304.62 86.51,306.52 86.9,308.41 86.31,310.31 86.47,312.2 86.26,314.1 86.35,315.99 86.61,317.89 86.8,319.78 86.74,321.68 
		86.4,323.57 86.43,325.47 86.81,327.36 86.26,329.26 86.93,331.15 86.62,333.04 86.3,334.94 86.96,336.83 86.42,338.73 
		86.69,340.62 86.44,342.51 86.54,344.41 86.96,346.3 86.71,348.19 86.28,350.09 86.56,351.98 86.44,353.87 86.24,355.77 
		86.33,357.66 86.24,359.55 86.49,361.44 86.83,363.34 86.46,365.23 86.44,367.13 86.67,369.02 88.31,371.11 90.17,370.78 
		92.03,370.42 93.88,370.57 95.74,370.68 97.59,370.62 99.45,370.91 101.3,371 103.16,370.89 104.71,369.02 105.22,367.14 
		104.59,365.25 103.16,363.64 101.26,363.35 99.37,363.16 97.47,363.58 96.02,361.77 95.54,359.83 96.04,357.89 95.61,355.95 
		95.66,354.01 95.52,352.07 95.64,350.13 95.72,348.19 95.62,346.25 95.46,344.31 95.59,342.37 95.76,340.44 96.07,338.5 
		96.12,336.56 95.84,334.62 95.84,332.68 97.47,330.63 99.37,331.07 101.26,330.67 103.16,330.8 104.87,329.2 104.51,327.32 
		105.07,325.43 103.16,323.72 101.26,323.37 99.37,323.86 97.47,323.62 96.12,321.96 96.12,320.02 95.81,318.08 95.6,316.14 
		95.55,314.2 96,312.27 95.57,310.33 95.46,308.4 95.61,306.46 95.67,304.52 95.94,302.59 96,300.65 96.04,298.72 95.41,296.78 
		95.85,294.85 95.71,292.91 97.47,291.28 	"/>
	<path class="st2" d="M149.81,370.74l1.9-0.09l1.9-0.23l1.89,0.23l2.11-1.63l-0.67-1.94l0.57-1.94l-0.45-1.94l0.48-1.94l-0.47-1.94
		l0.09-1.94l-0.09-1.94l-0.18-1.94l0.15-1.94l0.33-1.93l-0.15-1.94l0.25-1.93l-0.51-1.94l0-1.94l-0.01-1.94l0.57-1.93l-0.04-1.94
		l-0.51-1.93l-0.21-1.96l-0.54-1.94l-1.32-1.52l-1.3-1.45l1.42-1.36l1.02-1.7l0.38-1.95l0.79-1.81l0.09-1.97l-0.27-1.85l-0.13-1.85
		l0.11-1.85l-0.14-1.85l0.64-1.85l-0.56-1.85l0.19-1.85l0.17-1.85l-0.22-1.85l0.38-1.85l-0.38-1.85l0.35-1.85l-0.44-1.93l-0.75-1.79
		l-0.46-1.88l-1.22-1.5l-1.04-1.63l-1.65-1.01l-1.59-1.03l-1.68-0.93l-1.83-0.77l-1.97-0.04l-1.91-0.19l-1.91,0.07l-1.91,0.31
		l-1.9-0.24l-1.9,0.42l-1.9-0.62l-1.9,0.18l-1.72,1.91l0.18,1.9l-0.2,1.9l0.21,1.9l-0.5,1.9l0.12,1.9l0.45,1.9l-0.13,1.9l-0.27,1.9
		l-0.14,1.89l0.1,1.89l0.4,1.9l0.02,1.89l-0.45,1.9l-0.01,1.9l0.48,1.9l-0.39,1.89l-0.14,1.9l0.43,1.89l-0.03,1.89l0.16,1.89
		l-0.66,1.89l0.26,1.89l0.18,1.89l-0.06,1.89l0.27,1.89l-0.33,1.89l-0.19,1.89l0.06,1.89l0.3,1.89l-0.2,1.89l0.22,1.89l-0.29,1.89
		l-0.05,1.89l0.37,1.89l-0.47,1.89l0.48,1.89l-0.13,1.89l-0.2,1.89l0.09,1.89l-0.16,1.89l0.04,1.89l-0.1,1.89l0.34,1.89l0.24,1.89
		l1.41,1.39l1.9,0.19l1.9-0.2l1.89,0.37l2.04-1.75l-0.21-1.92l-0.47-1.92l0.51-1.91l0.23-1.91l-0.18-1.91l-0.23-1.91l0.12-1.91
		l-0.39-1.91l0.23-1.91l0.46-1.91l-0.35-1.91l0.06-1.91l-0.15-1.91l-0.21-1.91l-0.05-1.91l-0.03-1.91l0.61-1.91l-0.33-1.91
		l0.14-1.91l1.67-2.06l1.48,0.53l1.48-0.45l1.76,0.47l1.22,1.27l1.34,1.19l0.12,1.79l0.08,1.87l0.05,1.87l-0.31,1.87l0.25,1.87
		l-0.35,1.87l0.65,1.87l-0.27,1.87l0.1,1.87l-0.44,1.87l0.47,1.87l-0.58,1.87l0.19,1.87l0.23,1.87l-0.21,1.87l0.19,1.87l-0.06,1.87
		l0.18,1.87l-0.5,1.87L149.81,370.74z M148.09,305.47l-0.25,1.97l0.51,1.97l0,1.97l0.01,1.96l-0.57,1.96l0.04,1.96l0.36,1.96
		l-0.59,1.66l-1.11,1.23l-1.2,1.19l-1.69,0.37l-1.48-0.29l-1.48,0.65l-1.8-2.07l-0.1-1.94l0.44-1.94l-0.47-1.94l0.58-1.94
		l-0.19-1.94l-0.23-1.94l0.21-1.94l-0.19-1.94l0.06-1.94l-0.18-1.93l0.5-1.94l-0.38-1.93l-0.09-1.94l-0.23-1.94l0.23-1.94l1.85-1.37
		l1.48-0.67l1.48,0.57l1.78-0.09l1.16,1.35l1.34,1.17l0.26,1.77l0.09,1.97l0.18,1.97l-0.15,1.97l-0.33,1.96L148.09,305.47z"/>
	<path class="st2" d="M209.73,359.33l-0.33-1.94l0.04-1.94l0.33-1.94l-0.08-1.94l-0.4-1.93l0.39-1.94l0.06-1.93l-0.13-1.94
		l-0.1-1.94l-0.04-1.94l0.44-1.93l-0.07-1.94l-0.22-1.98l-0.49-1.92l-0.71-1.86l-1.29-1.52l-0.91-1.52l0.71-1.66l1.47-1.38
		l0.21-2.02l1.02-1.75l0.3-1.98l-0.76-1.85l0.3-1.85l0.47-1.85l-0.04-1.85l-0.56-1.85l-0.08-1.85l0.26-1.85l-0.28-1.85l0.54-1.85
		l-0.37-1.85l0.48-1.85l-0.53-1.85l-0.25-1.9l0.19-2.06l-0.93-1.77l-1-1.71l-1.55-1.24l-1.46-1.25l-1.53-1.23l-1.75-0.95l-1.95-0.42
		l-1.99,0.42l-1.91-0.22l-1.91-0.23l-1.91,0.06l-1.9,0.01l-1.9,0.21l-1.9-0.19l-1.9,0.38l-2.06,1.41l0.6,1.9l-0.61,1.9l0.23,1.9
		l0.37,1.9l-0.05,1.9l0.01,1.9l-0.57,1.9l0.39,1.9l0.02,1.89l0.03,1.89l-0.08,1.9l0.26,1.89l-0.63,1.9l0.67,1.9l0.01,1.9l-0.01,1.89
		l-0.03,1.9l-0.22,1.89l-0.11,1.89l-0.01,1.89l-0.18,1.89l0.31,1.89l0.23,1.89l-0.5,1.89l0.01,1.89l0.26,1.89l0.32,1.89l-0.67,1.89
		l0.37,1.89l-0.08,1.89l-0.31,1.89l0.34,1.89l0.22,1.89l-0.44,1.89l0.44,1.89l-0.62,1.89l0.58,1.89l-0.45,1.89l0.47,1.89l0.13,1.89
		l-0.19,1.89l-0.23,1.89l0.24,1.89l0.17,1.89l1.37,1.74l1.9-0.15l1.9,0.05l1.89,0.44l2.07-2.09l-0.64-1.92l0.7-1.92l-0.08-1.91
		l-0.67-1.91l0.6-1.91l-0.52-1.91l-0.07-1.91l0.47-1.91l-0.02-1.91l-0.01-1.91l0.19-1.91l-0.46-1.91l0.16-1.91l0.03-1.91l0.33-1.91
		l-0.62-1.91l0.64-1.91l-0.16-1.91l-0.24-1.91l1.77-1.81l1.48,0.01l1.48,0.38l1.64,0.19l1.77,0.55l0.53,1.78l0.38,1.63l0.01,1.87
		l-0.01,1.87l0.09,1.87l0.3,1.87l-0.38,1.87l0.03,1.87l0.3,1.87l-0.12,1.87l-0.22,1.87l-0.14,1.87l0.32,1.87l0.17,1.87l-0.12,1.87
		l-0.48,1.87l0.14,1.87l0.52,1.87l-0.24,1.87l-0.12,1.87l1.82,1.56l1.9-0.16l1.9,0.34l1.89,0.33l2.02-2.08l-0.03-1.94l-0.01-1.94
		l-0.42-1.94l0.57-1.94L209.73,359.33z M200.31,305.47l-0.06,1.97l0.13,1.97l0.1,1.97l0.04,1.96l-0.44,1.96l0.07,1.96l0.06,1.96
		l-0.3,1.64l-0.97,1.35l-1.26,1.2l-1.74-0.03l-1.49,0.18l-1.47,0.03l-1.93-1.63l0.12-1.94l0.22-1.94l0.14-1.94l-0.32-1.94
		l-0.17-1.94l0.12-1.94l0.48-1.94l-0.14-1.94l-0.52-1.94l0.24-1.93l0.12-1.94l-0.26-1.93l-0.16-1.94l0.34-1.94l0.33-1.94l1.4-1.46
		l1.48-0.03l1.48-0.01l1.78-0.07l1.1,1.41l1.11,1.23l0.66,1.65l-0.04,1.97l-0.33,1.97l0.08,1.97l0.4,1.96L200.31,305.47z"/>
	<path class="st2" d="M264.1,366.99l-0.2-1.85l0.31-1.92l0.1-1.91l-0.91-1.82l0.45-1.94l-0.43-1.86l-0.33-1.87l0.31-1.92l-0.6-1.84
		l-0.36-1.86l0.19-1.91l-0.27-1.87l0.03-1.9l-0.6-1.84l0.08-1.9l-0.26-1.87l0.39-1.93l-0.7-1.83l0.35-1.93l-0.51-1.85l-0.01-1.89
		l-0.57-1.85l-0.16-1.88l0.29-1.92l-0.09-1.89l-0.31-1.87l-0.4-1.86l-0.27-1.87l0.08-1.9l-0.13-1.88l-0.03-1.89l-0.13-1.88
		l-0.75-1.83l0.04-1.9l-0.36-1.86l-0.09-1.88l-0.23-1.87l0.01-1.89l-0.34-1.86l0.4-1.93l-0.13-1.88l-0.5-1.85l-0.67-2.05l-1.69-1.28
		l-2-0.71l-1.78,0.21l-1.78-0.26l-1.78,0.08l-1.78-0.01l-2.29,0.17l-1.71,1.61l-0.37,2.25l-0.33,1.87l-0.17,1.88l-0.34,1.87
		l-0.22,1.88l0.28,1.92l-0.24,1.88l0.13,1.91l-0.79,1.83l0.2,1.91l-0.06,1.89l-0.67,1.84l0.12,1.9l0.06,1.9l-0.55,1.85l-0.23,1.88
		l-0.07,1.89l0.16,1.91l0.06,1.9l-0.83,1.82l0.38,1.93l-0.53,1.85l0.22,1.91l-0.83,1.82l0.34,1.92l-0.6,1.84l0.45,1.93l-0.25,1.87
		l-0.02,1.89l-0.88,1.82l0.25,1.92l-0.15,1.88l-0.32,1.87l-0.32,1.87l0.28,1.92l-0.19,1.88l-0.39,1.86l-0.1,1.88l0.14,1.9
		l-0.82,1.82l0.37,1.93l-0.26,1.87l-0.6,1.84l0.31,1.92l0.44,1.19l1.15,0.88l1.62,0.05l1.62,0l1.62-0.29l2.03-1.52l0.16-1.85
		l-0.2-1.88l0.58-1.81l-0.12-1.87l0.35-1.83l0.18-1.84l-0.16-1.87l0.2-1.84l0.27-1.83l0.35-1.83l0.13-1.85l0.23-1.84l-0.03-1.86
		l-0.25-1.88l2.01-1.67l1.84,0.28l1.84-0.44l1.84,0.03l1.41,1.86l0.14,1.85l0.26,1.84l0.49,1.82l0.45,1.82l-0.27,1.88l0.02,1.86
		l0.1,1.85l0.44,1.82l0.35,1.83l-0.14,1.87l-0.06,1.86l0.79,1.79l-0.02,1.86l-0.27,1.88l2.03,1.5l1.62,0.16l1.62-0.33l1.62,0.05
		l1.1-0.55l0.35-1.13L264.1,366.99z M252.44,333.79l-1.1,0.77l-1.81-0.35l-1.81,0l-1.33-0.22l-0.05-1.33l-0.12-1.97l0.36-1.93
		l0.19-1.94l-0.15-1.97l0.21-1.94l0.28-1.93l0.36-1.92l0.14-1.94l0.23-1.93l-0.02-1.95l-0.24-1.97l0.33-1.92l0.45-1.91l-0.27-1.98
		l0.2-1.94l0.74-1.89l0.19-1.94l0.31-0.84l0.75,0.8l0.46,1.92l-0.26,1.98l0.03,1.95l0.11,1.94l0.44,1.91l0.36,1.92l-0.13,1.97
		l-0.05,1.96l0.8,1.88l-0.01,1.95l-0.26,1.98l0.53,1.91l0.01,1.95l0.5,1.91l0.12,1.94l0.23,1.93l0.21,1.93L252.44,333.79z"/>
</g>
</svg>
